<svg width="28" height="28" fill="none" xmlns="http://www.w3.org/2000/svg"><path d="m16.004 13.791-2.808-1.31c-.245-.114-.446.014-.446.285v2.468c0 .271.201.399.446.285l2.807-1.31c.246-.115.246-.303 0-.418ZM14 2C7.372 2 2 7.372 2 14s5.372 12 12 12 12-5.372 12-12S20.628 2 14 2Zm0 16.875c-6.143 0-6.25-.554-6.25-4.875S7.857 9.125 14 9.125c6.142 0 6.25.554 6.25 4.875s-.108 4.875-6.25 4.875Z" fill="#FCFCFC"/><path d="M14 24C8.477 24 4 19.523 4 14H0c0 7.732 6.268 14 14 14v-4Zm10-10c0 5.523-4.477 10-10 10v4c7.732 0 14-6.268 14-14h-4ZM14 4c5.523 0 10 4.477 10 10h4c0-7.732-6.268-14-14-14v4Zm0-4C6.268 0 0 6.268 0 14h4C4 8.477 8.477 4 14 4V0Z" fill="#FCFCFC" fill-opacity=".3"/></svg>